<svg id="svg" version="1.1" xmlns="http://www.w3.org/2000/svg" xmlns:xlink="http://www.w3.org/1999/xlink" width="400" height="400" viewBox="0, 0, 400,400"><g id="svgg"><path id="path0" d="M117.729 12.500 C 117.336 13.032,115.699 16.463,115.200 17.800 C 115.036 18.240,114.528 19.410,114.073 20.400 C 113.617 21.390,112.933 23.190,112.553 24.400 C 112.173 25.610,111.566 27.320,111.204 28.200 C 110.841 29.080,110.314 30.610,110.033 31.600 C 109.752 32.590,109.360 33.713,109.161 34.095 C 108.962 34.477,108.800 35.141,108.800 35.571 C 108.800 36.001,108.620 36.464,108.400 36.600 C 108.180 36.736,108.000 37.366,108.000 38.000 C 108.000 38.634,107.820 39.264,107.600 39.400 C 107.380 39.536,107.200 40.166,107.200 40.800 C 107.200 41.434,107.020 42.064,106.800 42.200 C 106.580 42.336,106.400 43.056,106.400 43.800 C 106.400 44.544,106.239 45.252,106.042 45.374 C 105.845 45.495,105.575 46.316,105.442 47.197 C 105.309 48.079,105.091 49.521,104.958 50.403 C 104.825 51.284,104.555 52.105,104.358 52.226 C 104.161 52.348,104.000 53.326,104.000 54.400 C 104.000 55.474,103.820 56.464,103.600 56.600 C 103.380 56.736,103.200 57.791,103.200 58.944 C 103.200 60.097,103.035 61.211,102.832 61.420 C 102.630 61.629,102.363 62.970,102.239 64.400 C 102.114 65.830,101.819 68.800,101.583 71.000 C 101.347 73.200,101.119 76.890,101.077 79.200 L 101.000 83.400 114.500 83.505 C 128.065 83.611,129.631 83.455,127.600 82.200 C 127.380 82.064,127.200 81.511,127.200 80.971 C 127.200 80.431,127.042 79.677,126.849 79.295 C 125.681 76.983,125.600 75.162,125.600 51.353 L 125.600 26.962 127.100 25.581 C 127.925 24.821,129.003 23.974,129.495 23.700 C 131.038 22.838,269.612 22.983,271.320 23.848 C 275.357 25.893,275.200 24.749,275.200 52.025 C 275.200 67.279,275.059 75.640,274.800 75.800 C 274.580 75.936,274.400 76.476,274.400 77.000 C 274.400 77.524,274.220 78.064,274.000 78.200 C 273.780 78.336,273.600 78.966,273.600 79.600 C 273.600 80.234,273.420 80.864,273.200 81.000 C 272.980 81.136,272.800 81.780,272.800 82.431 L 272.800 83.615 282.100 83.507 L 291.400 83.400 291.383 79.000 C 291.365 74.031,290.615 66.750,289.222 58.000 C 288.363 52.606,286.497 43.969,285.227 39.500 C 284.992 38.675,284.641 37.415,284.447 36.700 C 284.254 35.985,283.830 34.590,283.505 33.600 C 283.181 32.610,282.677 30.990,282.386 30.000 C 282.094 29.010,281.746 28.020,281.611 27.800 C 281.477 27.580,281.137 26.680,280.857 25.800 C 280.577 24.920,280.197 23.840,280.013 23.400 C 279.829 22.960,279.268 21.520,278.767 20.200 C 278.267 18.880,277.269 16.495,276.551 14.900 L 275.246 12.000 196.672 12.000 C 134.276 12.000,118.022 12.103,117.729 12.500 M178.866 239.292 C 177.809 241.884,177.405 242.487,175.956 243.635 L 174.485 244.800 147.042 244.800 L 119.600 244.800 119.600 286.000 L 119.600 327.200 197.400 327.200 L 275.200 327.200 275.200 286.000 L 275.200 244.800 236.700 244.799 C 199.502 244.797,198.158 244.771,196.946 244.033 C 195.270 243.010,193.697 240.876,193.533 239.400 L 193.400 238.200 186.400 238.092 L 179.400 237.983 178.866 239.292 M204.178 257.579 C 206.479 259.741,206.403 258.749,206.371 286.161 C 206.338 314.244,206.482 312.756,203.611 314.700 L 202.282 315.600 168.424 315.600 L 134.567 315.600 132.883 313.885 L 131.200 312.170 131.200 285.966 L 131.200 259.762 132.700 258.330 C 133.525 257.542,134.470 256.798,134.800 256.677 C 135.130 256.555,150.641 256.489,169.268 256.528 L 203.136 256.600 204.178 257.579 M229.801 258.200 C 232.576 261.266,231.021 268.000,227.539 268.000 C 227.158 268.000,226.736 268.180,226.600 268.400 C 226.295 268.894,222.244 268.930,221.295 268.447 C 220.913 268.252,220.060 267.847,219.400 267.547 C 216.085 266.036,215.195 261.400,217.678 258.572 C 219.425 256.582,220.024 256.400,224.476 256.507 L 228.353 256.600 229.801 258.200 M249.214 257.300 C 251.354 258.747,252.619 261.701,251.978 263.755 C 251.341 265.792,249.347 268.000,248.145 268.000 C 247.651 268.000,247.136 268.180,247.000 268.400 C 246.695 268.894,242.644 268.930,241.695 268.447 C 241.313 268.252,240.510 267.865,239.912 267.586 C 235.697 265.618,236.025 258.282,240.400 256.682 C 242.224 256.016,247.902 256.414,249.214 257.300 M269.883 257.185 C 274.312 259.886,273.251 266.472,268.097 268.267 C 266.321 268.885,262.950 268.967,262.600 268.400 C 262.464 268.180,261.953 268.000,261.465 268.000 C 260.205 268.000,257.827 265.535,257.259 263.641 C 255.676 258.355,264.446 253.870,269.883 257.185 M226.600 280.000 C 226.736 280.220,227.223 280.400,227.683 280.400 C 230.989 280.400,232.572 287.209,229.959 290.186 C 229.276 290.964,228.376 291.600,227.959 291.600 C 227.541 291.600,227.200 291.780,227.200 292.000 C 227.200 292.233,225.875 292.400,224.024 292.400 C 222.277 292.400,220.736 292.220,220.600 292.000 C 220.464 291.780,220.085 291.600,219.758 291.600 C 219.105 291.600,217.682 290.248,216.900 288.883 C 215.304 286.098,217.436 280.402,220.076 280.400 C 220.448 280.400,220.864 280.220,221.000 280.000 C 221.136 279.780,222.396 279.600,223.800 279.600 C 225.204 279.600,226.464 279.780,226.600 280.000 M247.705 280.136 C 250.977 281.276,252.912 284.674,251.917 287.536 C 249.312 295.028,236.800 293.682,236.800 285.909 C 236.800 283.403,239.082 280.400,240.986 280.400 C 241.324 280.400,241.600 280.220,241.600 280.000 C 241.600 279.422,245.933 279.519,247.705 280.136 M267.800 280.000 C 267.936 280.220,268.325 280.400,268.664 280.400 C 270.083 280.400,272.800 284.068,272.800 285.984 C 272.800 293.545,260.533 294.855,257.381 287.631 C 256.381 285.340,259.030 280.400,261.258 280.400 C 261.640 280.400,262.064 280.220,262.200 280.000 C 262.336 279.780,263.596 279.600,265.000 279.600 C 266.404 279.600,267.664 279.780,267.800 280.000 M228.719 304.620 C 231.725 306.119,232.219 311.381,229.600 314.000 L 228.000 315.600 223.915 315.600 L 219.830 315.600 218.115 313.917 C 215.601 311.449,215.554 308.046,218.000 305.600 L 219.600 304.000 223.539 304.000 C 226.293 304.000,227.850 304.186,228.719 304.620 M250.186 305.241 C 251.047 305.998,251.600 306.848,251.600 307.418 C 251.600 307.932,251.780 308.464,252.000 308.600 C 252.489 308.902,252.520 310.166,252.061 311.105 C 250.084 315.149,249.431 315.532,244.438 315.571 C 240.218 315.604,238.712 314.909,237.431 312.342 C 236.733 310.943,236.570 307.600,237.200 307.600 C 237.420 307.600,237.600 307.384,237.600 307.119 C 237.600 306.855,238.175 306.045,238.878 305.319 L 240.157 304.000 244.465 304.000 C 248.712 304.000,248.792 304.017,250.186 305.241 M270.622 305.300 C 273.983 309.008,273.478 312.768,269.305 315.100 C 268.336 315.642,260.800 315.817,260.800 315.298 C 260.800 315.131,260.305 314.776,259.700 314.507 C 259.086 314.235,258.364 313.441,258.066 312.710 C 257.773 311.989,257.358 311.033,257.144 310.585 C 256.858 309.985,256.971 309.266,257.574 307.860 C 259.041 304.438,259.857 304.028,265.222 304.012 L 269.443 304.000 270.622 305.300 " stroke="none" fill="#81929a" fill-rule="evenodd"></path><path id="path1" d="M168.800 75.969 C 168.800 82.575,167.303 85.200,163.539 85.200 C 162.824 85.200,162.800 87.131,162.800 145.200 L 162.800 205.200 200.200 205.200 L 237.600 205.200 237.600 145.390 L 237.600 85.580 236.506 85.164 C 232.027 83.461,231.200 81.892,231.200 75.088 L 231.200 70.400 200.000 70.400 L 168.800 70.400 168.800 75.969 M224.200 86.400 C 224.336 86.620,224.714 86.800,225.040 86.800 C 228.497 86.800,229.409 93.567,226.310 96.221 C 224.186 98.039,224.758 98.000,200.341 98.000 L 177.070 98.000 175.392 97.016 C 173.077 95.660,172.400 94.478,172.400 91.794 C 172.400 89.420,174.152 86.800,175.740 86.800 C 176.103 86.800,176.400 86.620,176.400 86.400 C 176.400 86.138,184.592 86.000,200.176 86.000 C 215.596 86.000,224.040 86.141,224.200 86.400 M99.200 97.733 C 99.200 98.907,99.065 100.001,98.900 100.164 C 98.735 100.328,98.374 102.743,98.098 105.531 C 97.821 108.319,97.421 111.770,97.208 113.200 C 96.151 120.300,95.977 121.590,95.755 124.000 C 95.624 125.430,95.355 126.771,95.158 126.980 C 94.961 127.189,94.800 128.483,94.800 129.856 C 94.800 131.229,94.620 132.464,94.400 132.600 C 94.180 132.736,94.000 134.241,94.000 135.944 C 94.000 137.647,93.830 139.211,93.622 139.420 C 92.964 140.083,92.763 149.608,92.575 189.122 L 92.392 227.643 90.952 229.200 C 90.119 230.100,88.983 230.862,88.256 231.008 C 85.370 231.587,85.600 230.876,85.600 239.227 L 85.600 246.800 87.000 246.800 C 87.770 246.800,88.400 246.980,88.400 247.200 C 88.400 247.420,88.691 247.600,89.046 247.600 C 89.401 247.600,90.301 248.265,91.046 249.078 L 92.400 250.556 92.400 261.466 C 92.400 272.172,92.418 272.416,93.371 274.488 C 94.726 277.432,98.051 280.400,99.995 280.400 C 100.438 280.400,100.800 280.587,100.800 280.816 C 100.800 281.080,102.007 281.190,104.100 281.116 L 107.400 281.000 107.503 258.683 L 107.607 236.367 108.990 234.983 C 109.751 234.222,110.649 233.600,110.987 233.600 C 111.324 233.600,111.600 233.422,111.600 233.204 C 111.600 232.949,118.561 232.771,131.100 232.704 L 150.600 232.600 150.701 164.100 L 150.802 95.600 125.001 95.600 L 99.200 95.600 99.200 97.733 M249.299 164.100 L 249.400 232.600 269.300 232.704 C 282.105 232.770,289.200 232.949,289.200 233.204 C 289.200 233.422,289.478 233.600,289.818 233.600 C 290.699 233.600,292.400 235.417,292.400 236.358 C 292.400 236.795,292.580 237.264,292.800 237.400 C 293.059 237.560,293.200 245.337,293.200 259.424 L 293.200 281.200 296.376 281.200 C 298.123 281.200,299.664 281.020,299.800 280.800 C 299.936 280.580,300.369 280.400,300.762 280.400 C 302.754 280.400,305.111 278.380,306.636 275.368 L 307.600 273.464 307.600 235.356 C 307.600 210.382,307.738 197.162,308.000 197.000 C 308.220 196.864,308.400 196.476,308.400 196.138 C 308.400 194.437,311.491 192.000,313.649 192.000 C 314.357 192.000,314.400 191.569,314.400 184.400 L 314.400 176.800 313.424 176.800 C 312.887 176.800,312.336 176.620,312.200 176.400 C 312.064 176.180,311.613 176.000,311.197 176.000 C 310.380 176.000,308.400 173.694,308.400 172.742 C 308.400 172.422,308.225 171.985,308.010 171.770 C 307.780 171.540,307.548 165.752,307.443 157.590 C 307.345 150.006,307.068 141.910,306.826 139.600 C 306.585 137.290,306.286 134.140,306.162 132.600 C 306.039 131.060,305.772 129.629,305.569 129.420 C 305.366 129.211,305.200 128.007,305.200 126.744 C 305.200 125.481,305.040 124.348,304.845 124.228 C 304.650 124.107,304.359 121.665,304.200 118.800 C 304.041 115.935,303.750 113.493,303.555 113.372 C 303.360 113.252,303.200 112.094,303.200 110.800 C 303.200 109.506,303.020 108.336,302.800 108.200 C 302.580 108.064,302.400 106.804,302.400 105.400 C 302.400 103.996,302.220 102.736,302.000 102.600 C 301.780 102.464,301.600 101.319,301.600 100.056 C 301.600 98.793,301.375 97.275,301.100 96.683 L 300.600 95.606 274.899 95.603 L 249.198 95.600 249.299 164.100 M207.000 112.800 C 207.136 113.020,207.676 113.200,208.200 113.200 C 208.724 113.200,209.264 113.380,209.400 113.600 C 209.536 113.820,209.962 114.000,210.347 114.000 C 211.225 114.000,215.825 116.298,217.579 117.612 C 219.743 119.234,223.589 122.966,223.595 123.451 C 223.598 123.699,223.866 124.123,224.192 124.393 C 224.787 124.887,225.456 126.039,226.867 129.000 C 227.286 129.880,227.803 130.913,228.015 131.295 C 228.227 131.677,228.400 132.341,228.400 132.771 C 228.400 133.201,228.580 133.664,228.800 133.800 C 229.020 133.936,229.200 134.721,229.200 135.544 C 229.200 136.367,229.393 137.233,229.629 137.469 C 231.526 139.366,227.888 155.203,225.005 157.596 C 224.672 157.872,224.400 158.297,224.400 158.541 C 224.400 159.130,217.946 165.600,217.358 165.600 C 217.105 165.600,216.672 165.872,216.396 166.205 C 215.297 167.529,208.296 170.384,206.124 170.394 C 205.422 170.397,204.736 170.580,204.600 170.800 C 204.461 171.025,202.537 171.200,200.200 171.200 C 197.863 171.200,195.939 171.025,195.800 170.800 C 195.664 170.580,194.753 170.400,193.776 170.400 C 192.799 170.400,192.000 170.220,192.000 170.000 C 192.000 169.780,191.657 169.600,191.238 169.600 C 190.819 169.600,189.784 169.255,188.938 168.833 C 188.092 168.411,187.130 167.965,186.800 167.842 C 186.217 167.623,184.528 166.600,182.161 165.030 C 180.658 164.033,177.200 160.730,177.200 160.292 C 177.200 160.105,176.671 159.289,176.023 158.477 C 174.533 156.606,172.400 152.548,172.400 151.583 C 172.400 151.178,172.220 150.736,172.000 150.600 C 171.780 150.464,171.600 149.834,171.600 149.200 C 171.600 148.566,171.420 147.936,171.200 147.800 C 170.962 147.653,170.800 145.137,170.800 141.600 C 170.800 138.063,170.962 135.547,171.200 135.400 C 171.420 135.264,171.600 134.685,171.600 134.114 C 171.600 130.498,178.447 120.608,183.000 117.649 C 185.955 115.728,191.339 113.200,192.475 113.200 C 193.094 113.200,193.600 113.020,193.600 112.800 C 193.600 112.550,196.059 112.400,200.176 112.400 C 204.129 112.400,206.851 112.560,207.000 112.800 M139.305 139.300 C 142.390 141.024,143.957 144.124,142.847 146.305 C 142.652 146.687,142.275 147.471,142.008 148.046 C 140.808 150.632,139.545 150.800,121.291 150.800 C 103.591 150.800,103.630 150.804,101.300 148.647 C 100.043 147.483,99.222 142.000,100.305 142.000 C 100.473 142.000,100.788 141.606,101.005 141.124 C 102.010 138.895,102.310 138.861,121.105 138.829 C 134.252 138.807,138.626 138.920,139.305 139.300 M297.081 139.299 C 298.532 139.947,300.000 141.396,300.000 142.182 C 300.000 142.522,300.180 142.800,300.400 142.800 C 301.996 142.800,300.094 148.638,298.200 149.551 C 297.540 149.869,296.687 150.281,296.305 150.465 C 295.133 151.031,263.293 150.882,261.628 150.303 C 256.985 148.688,256.047 142.836,259.964 139.927 L 261.400 138.861 278.681 138.830 C 291.684 138.808,296.239 138.924,297.081 139.299 " stroke="none" fill="#ebbcc4" fill-rule="evenodd"></path><path id="path2" d="M109.416 1.096 C 108.857 1.699,108.400 2.469,108.400 2.808 C 108.400 3.146,108.040 3.683,107.600 4.000 C 107.160 4.317,106.800 4.897,106.800 5.288 C 106.800 5.680,106.620 6.000,106.400 6.000 C 106.180 6.000,106.000 6.360,106.000 6.800 C 106.000 7.240,105.865 7.601,105.700 7.603 C 105.294 7.607,104.400 9.586,104.400 10.480 C 104.400 10.876,104.220 11.200,104.000 11.200 C 103.780 11.200,103.600 11.560,103.600 12.000 C 103.600 12.440,103.420 12.800,103.200 12.800 C 102.980 12.800,102.800 13.160,102.800 13.600 C 102.800 14.040,102.620 14.400,102.400 14.400 C 102.180 14.400,102.000 14.940,102.000 15.600 C 102.000 16.260,101.820 16.800,101.600 16.800 C 101.380 16.800,101.200 17.160,101.200 17.600 C 101.200 18.040,101.020 18.400,100.800 18.400 C 100.580 18.400,100.400 18.940,100.400 19.600 C 100.400 20.260,100.220 20.800,100.000 20.800 C 99.780 20.800,99.600 21.160,99.600 21.600 C 99.600 22.040,99.420 22.400,99.200 22.400 C 98.980 22.400,98.800 22.940,98.800 23.600 C 98.800 24.260,98.620 24.800,98.400 24.800 C 98.180 24.800,98.000 25.239,98.000 25.776 C 98.000 26.313,97.820 26.864,97.600 27.000 C 97.380 27.136,97.200 27.687,97.200 28.224 C 97.200 28.761,97.020 29.200,96.800 29.200 C 96.580 29.200,96.400 29.740,96.400 30.400 C 96.400 31.060,96.220 31.600,96.000 31.600 C 95.780 31.600,95.600 32.320,95.600 33.200 C 95.600 34.080,95.420 34.800,95.200 34.800 C 94.980 34.800,94.800 35.520,94.800 36.400 C 94.800 37.280,94.620 38.000,94.400 38.000 C 94.180 38.000,94.000 38.540,94.000 39.200 C 94.000 39.860,93.820 40.400,93.600 40.400 C 93.380 40.400,93.200 41.174,93.200 42.120 C 93.200 43.066,93.028 44.012,92.817 44.223 C 92.607 44.433,92.311 46.089,92.160 47.903 C 92.009 49.716,91.731 51.200,91.542 51.200 C 91.354 51.200,91.200 52.280,91.200 53.600 C 91.200 54.933,91.022 56.000,90.800 56.000 C 90.580 56.000,90.400 56.990,90.400 58.200 C 90.400 59.410,90.220 60.400,90.000 60.400 C 89.767 60.400,89.600 61.733,89.600 63.600 C 89.600 65.467,89.433 66.800,89.200 66.800 C 88.957 66.800,88.800 68.592,88.800 71.376 C 88.800 73.996,88.629 76.058,88.400 76.200 C 88.157 76.350,88.000 79.337,88.000 83.824 C 88.000 88.475,87.852 91.200,87.600 91.200 C 87.374 91.200,87.200 92.333,87.200 93.800 C 87.200 95.267,87.026 96.400,86.800 96.400 C 86.571 96.400,86.400 97.600,86.400 99.200 C 86.400 100.800,86.229 102.000,86.000 102.000 C 85.771 102.000,85.600 103.200,85.600 104.800 C 85.600 106.400,85.429 107.600,85.200 107.600 C 84.974 107.600,84.800 108.733,84.800 110.200 C 84.800 111.667,84.626 112.800,84.400 112.800 C 84.171 112.800,84.000 114.000,84.000 115.600 C 84.000 117.200,83.829 118.400,83.600 118.400 C 83.371 118.400,83.200 119.600,83.200 121.200 C 83.200 122.800,83.029 124.000,82.800 124.000 C 82.574 124.000,82.400 125.133,82.400 126.600 C 82.400 128.067,82.226 129.200,82.000 129.200 C 81.767 129.200,81.600 130.533,81.600 132.400 C 81.600 134.267,81.433 135.600,81.200 135.600 C 80.959 135.600,80.800 137.267,80.800 139.800 C 80.800 142.333,80.641 144.000,80.400 144.000 C 80.154 144.000,80.000 146.000,80.000 149.200 L 80.000 154.400 69.697 154.400 L 59.394 154.400 58.097 155.813 L 56.800 157.227 56.800 184.213 C 56.800 201.938,56.937 211.200,57.200 211.200 C 57.420 211.200,57.600 211.483,57.600 211.829 C 57.600 212.174,57.832 212.669,58.115 212.929 C 59.623 214.307,60.386 214.400,70.195 214.400 L 80.000 214.400 80.000 221.400 C 80.000 225.800,80.149 228.400,80.400 228.400 C 80.620 228.400,80.800 228.683,80.800 229.029 C 80.800 229.837,81.763 230.800,82.571 230.800 C 82.917 230.800,83.200 231.001,83.200 231.246 C 83.200 232.604,89.069 230.816,90.906 228.898 L 91.992 227.765 92.175 189.182 C 92.363 149.611,92.563 140.083,93.222 139.420 C 93.430 139.211,93.600 137.636,93.600 135.920 C 93.600 134.107,93.768 132.800,94.000 132.800 C 94.229 132.800,94.400 131.600,94.400 130.000 C 94.400 128.400,94.571 127.200,94.800 127.200 C 95.025 127.200,95.200 126.075,95.200 124.624 C 95.200 123.207,95.380 121.936,95.600 121.800 C 95.820 121.664,96.000 120.404,96.000 119.000 C 96.000 117.596,96.180 116.336,96.400 116.200 C 96.620 116.064,96.800 114.829,96.800 113.456 C 96.800 112.083,96.965 110.789,97.166 110.580 C 97.368 110.371,97.638 109.075,97.766 107.700 C 97.895 106.325,98.105 104.075,98.234 102.700 C 98.362 101.325,98.632 100.029,98.834 99.820 C 99.035 99.611,99.200 98.486,99.200 97.320 L 99.200 95.200 125.000 95.200 L 150.800 95.200 150.800 164.000 L 150.800 232.800 131.595 232.800 C 110.905 232.800,111.858 232.705,109.335 235.018 L 108.007 236.236 107.903 258.618 L 107.800 281.000 103.760 281.000 C 98.482 281.000,95.030 279.078,93.342 275.200 C 93.007 274.430,92.568 273.487,92.366 273.105 C 92.165 272.723,92.000 267.503,92.000 261.505 C 91.999 250.770,91.985 250.584,91.100 249.572 C 89.294 247.507,83.200 245.369,83.200 246.800 C 83.200 247.020,82.917 247.200,82.571 247.200 C 81.763 247.200,80.800 248.163,80.800 248.971 C 80.800 249.317,80.620 249.600,80.400 249.600 C 80.141 249.600,80.000 254.267,80.000 262.800 C 80.000 271.333,80.141 276.000,80.400 276.000 C 80.620 276.000,80.800 276.720,80.800 277.600 C 80.800 278.480,80.980 279.200,81.200 279.200 C 81.420 279.200,81.600 279.560,81.600 280.000 C 81.600 280.440,81.780 280.800,82.000 280.800 C 82.220 280.800,82.400 281.160,82.400 281.600 C 82.400 282.040,82.580 282.400,82.800 282.400 C 83.020 282.400,83.200 282.673,83.200 283.006 C 83.200 283.795,89.805 290.400,90.594 290.400 C 90.927 290.400,91.200 290.560,91.200 290.755 C 91.200 290.951,91.830 291.229,92.600 291.374 C 93.370 291.518,94.000 291.808,94.000 292.018 C 94.000 292.228,94.720 292.400,95.600 292.400 C 96.480 292.400,97.200 292.580,97.200 292.800 C 97.200 293.044,99.067 293.200,102.000 293.200 L 106.800 293.200 106.800 314.400 C 106.800 328.267,106.938 335.600,107.200 335.600 C 107.420 335.600,107.600 335.960,107.600 336.400 C 107.600 336.840,107.780 337.200,108.000 337.200 C 108.220 337.200,108.403 337.515,108.407 337.900 C 108.427 339.836,111.471 340.400,121.912 340.400 L 131.600 340.400 131.600 352.000 C 131.600 359.467,131.743 363.600,132.000 363.600 C 132.220 363.600,132.400 364.140,132.400 364.800 C 132.400 365.460,132.580 366.000,132.800 366.000 C 133.020 366.000,133.200 366.283,133.200 366.629 C 133.200 367.437,134.163 368.400,134.971 368.400 C 135.317 368.400,135.600 368.580,135.600 368.800 C 135.600 369.052,138.333 369.200,143.000 369.200 L 150.400 369.200 150.400 383.200 C 150.400 392.267,150.541 397.200,150.800 397.200 C 151.020 397.200,151.200 397.483,151.200 397.829 C 151.200 399.899,148.675 399.791,199.822 399.906 L 247.102 400.013 248.351 398.846 C 249.038 398.204,249.600 397.391,249.600 397.040 C 249.600 396.688,249.780 396.400,250.000 396.400 C 250.259 396.400,250.400 391.600,250.400 382.800 L 250.400 369.200 257.400 369.200 C 261.800 369.200,264.400 369.051,264.400 368.800 C 264.400 368.580,264.678 368.400,265.018 368.400 C 265.818 368.400,267.600 366.618,267.600 365.818 C 267.600 365.478,267.780 365.200,268.000 365.200 C 268.258 365.200,268.400 360.800,268.400 352.800 L 268.400 340.400 278.376 340.400 C 284.596 340.400,288.446 340.249,288.600 340.000 C 288.736 339.780,289.243 339.600,289.726 339.600 C 290.221 339.600,291.172 338.982,291.903 338.187 L 293.200 336.773 293.200 314.987 L 293.200 293.200 298.400 293.200 C 301.600 293.200,303.600 293.046,303.600 292.800 C 303.600 292.580,304.140 292.400,304.800 292.400 C 305.460 292.400,306.000 292.244,306.000 292.053 C 306.000 291.862,306.730 291.607,307.623 291.488 C 308.558 291.362,309.552 290.916,309.970 290.435 C 310.368 289.976,310.902 289.600,311.156 289.600 C 311.791 289.600,316.000 285.340,316.000 284.697 C 316.000 284.411,316.360 283.917,316.800 283.600 C 317.240 283.283,317.600 282.703,317.600 282.312 C 317.600 281.920,317.780 281.600,318.000 281.600 C 318.220 281.600,318.400 281.240,318.400 280.800 C 318.400 280.360,318.580 280.000,318.800 280.000 C 319.020 280.000,319.200 279.460,319.200 278.800 C 319.200 278.140,319.380 277.600,319.600 277.600 C 319.820 277.600,320.000 276.981,320.000 276.224 C 320.000 275.467,320.180 274.736,320.400 274.600 C 320.632 274.457,320.800 272.263,320.800 269.376 L 320.800 264.400 330.200 264.400 C 336.200 264.400,339.600 264.255,339.600 264.000 C 339.600 263.780,339.968 263.600,340.418 263.600 C 341.379 263.600,343.200 261.910,343.200 261.018 C 343.200 260.678,343.380 260.400,343.600 260.400 C 343.863 260.400,344.000 251.333,344.000 234.000 C 344.000 216.667,343.863 207.600,343.600 207.600 C 343.380 207.600,343.200 207.322,343.200 206.982 C 343.200 206.286,341.460 204.400,340.818 204.400 C 340.588 204.400,340.400 204.220,340.400 204.000 C 340.400 203.744,336.867 203.600,330.600 203.600 L 320.800 203.600 320.800 199.600 C 320.800 197.200,320.640 195.600,320.400 195.600 C 320.180 195.600,320.000 195.327,320.000 194.994 C 320.000 193.341,317.523 191.951,314.950 192.161 C 311.236 192.464,310.112 193.268,308.339 196.895 C 308.153 197.277,308.000 214.661,308.000 235.527 L 308.000 273.464 307.032 275.377 C 304.834 279.719,302.907 280.829,297.100 281.101 L 292.800 281.303 292.800 259.475 C 292.800 245.355,292.659 237.560,292.400 237.400 C 292.180 237.264,292.000 236.745,292.000 236.246 C 292.000 235.238,290.784 234.002,289.081 233.276 C 288.267 232.930,282.680 232.800,268.581 232.800 L 249.200 232.800 249.200 164.000 L 249.200 95.200 274.900 95.203 L 300.600 95.206 301.100 96.283 C 301.375 96.875,301.600 98.393,301.600 99.656 C 301.600 100.919,301.780 102.064,302.000 102.200 C 302.220 102.336,302.400 103.596,302.400 105.000 C 302.400 106.404,302.580 107.664,302.800 107.800 C 303.020 107.936,303.200 109.207,303.200 110.624 C 303.200 112.075,303.375 113.200,303.600 113.200 C 303.825 113.200,304.000 114.325,304.000 115.776 C 304.000 117.193,304.180 118.464,304.400 118.600 C 304.620 118.736,304.800 119.996,304.800 121.400 C 304.800 122.804,304.980 124.064,305.200 124.200 C 305.420 124.336,305.600 125.607,305.600 127.024 C 305.600 128.475,305.775 129.600,306.000 129.600 C 306.231 129.600,306.400 130.859,306.400 132.576 C 306.400 134.213,306.580 135.664,306.800 135.800 C 307.021 135.936,307.200 137.730,307.200 139.800 C 307.200 141.870,307.379 143.664,307.600 143.800 C 307.854 143.957,308.000 149.006,308.000 157.629 C 308.000 165.099,308.153 171.523,308.339 171.905 C 309.590 174.465,310.087 175.080,311.431 175.736 C 315.029 177.491,320.000 176.312,320.000 173.703 C 320.000 173.426,320.180 173.200,320.400 173.200 C 320.657 173.200,320.800 169.133,320.800 161.800 C 320.800 154.467,320.657 150.400,320.400 150.400 C 320.153 150.400,320.000 148.333,320.000 145.000 C 320.000 141.667,319.847 139.600,319.600 139.600 C 319.360 139.600,319.200 138.000,319.200 135.600 C 319.200 133.200,319.040 131.600,318.800 131.600 C 318.575 131.600,318.400 130.475,318.400 129.024 C 318.400 127.607,318.220 126.336,318.000 126.200 C 317.780 126.064,317.600 124.793,317.600 123.376 C 317.600 121.925,317.425 120.800,317.200 120.800 C 316.971 120.800,316.800 119.600,316.800 118.000 C 316.800 116.400,316.629 115.200,316.400 115.200 C 316.171 115.200,316.000 114.000,316.000 112.400 C 316.000 110.800,315.829 109.600,315.600 109.600 C 315.374 109.600,315.200 108.467,315.200 107.000 C 315.200 105.533,315.026 104.400,314.800 104.400 C 314.571 104.400,314.400 103.200,314.400 101.600 C 314.400 100.000,314.229 98.800,314.000 98.800 C 313.775 98.800,313.600 97.675,313.600 96.224 C 313.600 94.807,313.420 93.536,313.200 93.400 C 312.975 93.261,312.800 91.329,312.800 88.976 C 312.800 86.459,312.641 84.800,312.400 84.800 C 312.148 84.800,312.000 82.067,312.000 77.400 C 312.000 72.733,311.852 70.000,311.600 70.000 C 311.367 70.000,311.200 68.667,311.200 66.800 C 311.200 64.933,311.033 63.600,310.800 63.600 C 310.574 63.600,310.400 62.467,310.400 61.000 C 310.400 59.533,310.226 58.400,310.000 58.400 C 309.771 58.400,309.600 57.200,309.600 55.600 C 309.600 54.060,309.446 52.800,309.258 52.800 C 309.069 52.800,308.791 51.316,308.640 49.503 C 308.489 47.689,308.193 46.033,307.983 45.823 C 307.772 45.612,307.600 44.666,307.600 43.720 C 307.600 42.774,307.420 42.000,307.200 42.000 C 306.980 42.000,306.800 41.280,306.800 40.400 C 306.800 39.520,306.620 38.800,306.400 38.800 C 306.180 38.800,306.000 38.260,306.000 37.600 C 306.000 36.940,305.820 36.400,305.600 36.400 C 305.380 36.400,305.200 35.680,305.200 34.800 C 305.200 33.920,305.020 33.200,304.800 33.200 C 304.580 33.200,304.400 32.660,304.400 32.000 C 304.400 31.340,304.220 30.800,304.000 30.800 C 303.780 30.800,303.600 30.260,303.600 29.600 C 303.600 28.940,303.420 28.400,303.200 28.400 C 302.980 28.400,302.800 27.961,302.800 27.424 C 302.800 26.887,302.620 26.336,302.400 26.200 C 302.180 26.064,302.000 25.513,302.000 24.976 C 302.000 24.439,301.820 24.000,301.600 24.000 C 301.380 24.000,301.200 23.460,301.200 22.800 C 301.200 22.140,301.020 21.600,300.800 21.600 C 300.580 21.600,300.400 21.060,300.400 20.400 C 300.400 19.740,300.220 19.200,300.000 19.200 C 299.780 19.200,299.600 18.840,299.600 18.400 C 299.600 17.960,299.420 17.600,299.200 17.600 C 298.980 17.600,298.800 17.060,298.800 16.400 C 298.800 15.740,298.620 15.200,298.400 15.200 C 298.180 15.200,298.000 14.840,298.000 14.400 C 298.000 13.960,297.820 13.600,297.600 13.600 C 297.380 13.600,297.200 13.240,297.200 12.800 C 297.200 12.360,297.020 12.000,296.800 12.000 C 296.580 12.000,296.400 11.460,296.400 10.800 C 296.400 10.140,296.220 9.600,296.000 9.600 C 295.780 9.600,295.600 9.330,295.600 9.000 C 295.600 8.670,295.420 8.400,295.200 8.400 C 294.980 8.400,294.800 8.040,294.800 7.600 C 294.800 7.160,294.620 6.800,294.400 6.800 C 294.180 6.800,294.000 6.440,294.000 6.000 C 294.000 5.560,293.820 5.200,293.600 5.200 C 293.380 5.200,293.200 4.880,293.200 4.488 C 293.200 4.097,292.840 3.517,292.400 3.200 C 291.960 2.883,291.600 2.316,291.600 1.940 C 291.600 -0.129,297.672 -0.000,200.388 0.000 L 110.432 0.000 109.416 1.096 M276.111 12.405 C 276.490 12.847,276.800 13.477,276.800 13.805 C 276.800 14.132,276.980 14.400,277.200 14.400 C 277.420 14.400,277.600 14.760,277.600 15.200 C 277.600 15.640,277.780 16.000,278.000 16.000 C 278.220 16.000,278.400 16.360,278.400 16.800 C 278.400 17.240,278.580 17.600,278.800 17.600 C 279.020 17.600,279.200 18.140,279.200 18.800 C 279.200 19.460,279.380 20.000,279.600 20.000 C 279.820 20.000,280.000 20.540,280.000 21.200 C 280.000 21.860,280.180 22.400,280.400 22.400 C 280.620 22.400,280.800 22.760,280.800 23.200 C 280.800 23.640,280.980 24.000,281.200 24.000 C 281.420 24.000,281.600 24.540,281.600 25.200 C 281.600 25.860,281.780 26.400,282.000 26.400 C 282.220 26.400,282.400 26.850,282.400 27.400 C 282.400 27.950,282.580 28.400,282.800 28.400 C 283.020 28.400,283.200 28.940,283.200 29.600 C 283.200 30.260,283.380 30.800,283.600 30.800 C 283.820 30.800,284.000 31.340,284.000 32.000 C 284.000 32.660,284.180 33.200,284.400 33.200 C 284.620 33.200,284.800 33.920,284.800 34.800 C 284.800 35.680,284.980 36.400,285.200 36.400 C 285.420 36.400,285.600 36.940,285.600 37.600 C 285.600 38.260,285.780 38.800,286.000 38.800 C 286.220 38.800,286.400 39.520,286.400 40.400 C 286.400 41.280,286.580 42.000,286.800 42.000 C 287.020 42.000,287.200 42.630,287.200 43.400 C 287.200 44.170,287.380 44.800,287.600 44.800 C 287.820 44.800,288.000 45.700,288.000 46.800 C 288.000 47.900,288.180 48.800,288.400 48.800 C 288.620 48.800,288.800 49.700,288.800 50.800 C 288.800 51.900,288.980 52.800,289.200 52.800 C 289.422 52.800,289.600 53.867,289.600 55.200 C 289.600 56.533,289.778 57.600,290.000 57.600 C 290.220 57.600,290.400 58.575,290.400 59.767 C 290.400 60.958,290.573 61.993,290.785 62.067 C 291.002 62.142,291.291 65.733,291.447 70.300 C 291.600 74.755,291.876 78.400,292.062 78.400 C 292.248 78.400,292.400 79.562,292.400 80.982 L 292.400 83.564 291.100 83.799 C 287.560 84.438,272.615 83.825,272.463 83.034 C 272.314 82.255,272.981 79.571,273.639 78.305 C 273.838 77.923,274.000 77.158,274.000 76.605 C 274.000 76.052,274.180 75.600,274.400 75.600 C 274.662 75.600,274.800 67.479,274.800 52.038 C 274.800 25.278,274.918 26.265,271.514 24.448 L 269.924 23.600 200.157 23.600 C 145.073 23.600,130.206 23.705,129.520 24.100 C 129.042 24.375,128.054 25.179,127.325 25.887 L 126.000 27.173 126.000 51.763 C 126.000 67.725,126.140 76.440,126.400 76.600 C 126.620 76.736,126.800 77.366,126.800 78.000 C 126.800 78.634,126.980 79.264,127.200 79.400 C 127.420 79.536,127.600 80.177,127.600 80.824 C 127.600 81.471,127.793 82.000,128.028 82.000 C 128.263 82.000,128.398 82.405,128.328 82.900 L 128.200 83.800 114.848 83.905 C 104.885 83.984,101.348 83.889,100.914 83.529 C 100.283 83.005,100.380 78.484,101.190 70.800 C 101.410 68.710,101.690 65.830,101.811 64.400 C 101.933 62.970,102.196 61.440,102.396 61.000 C 102.595 60.560,102.858 59.345,102.979 58.300 C 103.532 53.544,103.701 52.576,104.039 52.220 C 104.237 52.011,104.400 51.167,104.400 50.344 C 104.400 49.521,104.580 48.736,104.800 48.600 C 105.020 48.464,105.200 47.744,105.200 47.000 C 105.200 46.256,105.380 45.536,105.600 45.400 C 105.820 45.264,106.000 44.544,106.000 43.800 C 106.000 43.056,106.180 42.336,106.400 42.200 C 106.620 42.064,106.800 41.434,106.800 40.800 C 106.800 40.166,106.980 39.536,107.200 39.400 C 107.420 39.264,107.600 38.634,107.600 38.000 C 107.600 37.366,107.780 36.736,108.000 36.600 C 108.220 36.464,108.400 35.823,108.400 35.176 C 108.400 34.529,108.580 34.000,108.800 34.000 C 109.020 34.000,109.200 33.471,109.200 32.824 C 109.200 32.177,109.380 31.536,109.600 31.400 C 109.820 31.264,110.000 30.724,110.000 30.200 C 110.000 29.676,110.180 29.136,110.400 29.000 C 110.620 28.864,110.800 28.403,110.800 27.976 C 110.800 27.549,110.980 27.200,111.200 27.200 C 111.420 27.200,111.600 26.660,111.600 26.000 C 111.600 25.340,111.780 24.800,112.000 24.800 C 112.220 24.800,112.400 24.361,112.400 23.824 C 112.400 23.287,112.580 22.736,112.800 22.600 C 113.020 22.464,113.200 22.003,113.200 21.576 C 113.200 21.149,113.380 20.800,113.600 20.800 C 113.820 20.800,114.000 20.525,114.000 20.189 C 114.000 19.852,114.630 18.250,115.400 16.627 C 116.170 15.004,116.800 13.539,116.800 13.370 C 116.800 13.201,117.098 12.734,117.462 12.331 C 118.554 11.125,275.077 11.197,276.111 12.405 M262.000 55.200 C 262.000 67.467,261.861 74.000,261.600 74.000 C 261.380 74.000,261.200 74.439,261.200 74.976 C 261.200 75.513,261.020 76.064,260.800 76.200 C 260.580 76.336,260.400 77.056,260.400 77.800 C 260.400 78.544,260.220 79.264,260.000 79.400 C 259.780 79.536,259.600 79.988,259.600 80.405 C 259.600 82.857,258.979 83.200,254.536 83.200 L 250.400 83.200 250.400 80.395 C 250.400 78.852,250.175 77.198,249.900 76.720 C 248.986 75.131,246.838 73.200,245.985 73.200 C 244.263 73.200,244.000 72.383,244.000 67.029 C 244.000 63.943,243.845 62.000,243.600 62.000 C 243.380 62.000,243.200 61.640,243.200 61.200 C 243.200 60.760,243.041 60.400,242.847 60.400 C 242.652 60.400,242.399 60.039,242.283 59.597 C 242.152 59.095,241.611 58.702,240.837 58.547 C 240.157 58.411,239.600 58.142,239.600 57.950 C 239.600 57.752,222.533 57.600,200.400 57.600 C 174.533 57.600,161.200 57.736,161.200 58.000 C 161.200 58.220,160.795 58.406,160.300 58.413 C 159.195 58.430,157.600 59.700,157.600 60.564 C 157.600 60.914,157.420 61.200,157.200 61.200 C 156.953 61.200,156.800 63.276,156.800 66.629 C 156.800 72.526,156.577 73.200,154.629 73.200 C 154.063 73.200,153.600 73.380,153.600 73.600 C 153.600 73.820,153.317 74.000,152.971 74.000 C 151.364 74.000,150.400 76.248,150.400 79.995 L 150.400 83.200 145.800 83.200 L 141.200 83.200 141.200 81.824 C 141.200 81.067,141.020 80.336,140.800 80.200 C 140.580 80.064,140.400 79.524,140.400 79.000 C 140.400 78.476,140.220 77.936,140.000 77.800 C 139.780 77.664,139.600 77.113,139.600 76.576 C 139.600 76.039,139.420 75.600,139.200 75.600 C 138.980 75.600,138.800 74.880,138.800 74.000 C 138.800 73.120,138.620 72.400,138.400 72.400 C 138.139 72.400,138.000 66.133,138.000 54.400 L 138.000 36.400 200.000 36.400 L 262.000 36.400 262.000 55.200 M231.200 74.788 C 231.200 80.858,232.142 83.029,235.382 84.428 L 237.600 85.385 237.600 145.493 L 237.600 205.600 200.000 205.600 L 162.400 205.600 162.400 145.400 C 162.400 87.136,162.424 85.200,163.139 85.200 C 164.391 85.200,166.325 84.020,167.592 82.484 L 168.800 81.018 168.800 75.709 L 168.800 70.400 200.000 70.400 L 231.200 70.400 231.200 74.788 M176.074 86.589 C 173.657 87.922,172.800 89.233,172.800 91.595 C 172.800 93.905,173.475 95.991,174.225 95.997 C 174.458 95.999,175.036 96.360,175.508 96.800 C 176.578 97.797,222.753 98.080,224.505 97.100 C 229.419 94.353,229.161 88.298,224.054 86.518 C 221.944 85.784,177.416 85.849,176.074 86.589 M193.800 113.200 C 193.664 113.420,193.021 113.600,192.371 113.600 C 191.721 113.600,190.877 113.771,190.495 113.980 C 190.113 114.188,188.609 114.906,187.153 115.575 C 185.697 116.243,184.280 117.062,184.004 117.395 C 183.728 117.728,183.279 118.000,183.006 118.000 C 182.260 118.000,176.320 124.384,175.370 126.207 C 174.913 127.083,174.351 128.160,174.120 128.600 C 172.578 131.539,172.000 133.021,172.000 134.038 C 172.000 134.677,171.820 135.200,171.600 135.200 C 171.351 135.200,171.200 137.525,171.200 141.376 C 171.200 145.063,171.361 147.652,171.600 147.800 C 171.820 147.936,172.000 148.667,172.000 149.424 C 172.000 150.181,172.180 150.800,172.400 150.800 C 172.620 150.800,172.800 151.142,172.800 151.559 C 172.800 152.544,174.917 156.586,176.423 158.477 C 177.071 159.289,177.600 160.106,177.600 160.293 C 177.600 160.964,183.875 166.387,184.677 166.409 C 184.854 166.414,185.450 166.770,186.000 167.200 C 186.550 167.630,187.315 167.986,187.700 167.991 C 188.085 167.996,188.400 168.180,188.400 168.400 C 188.400 168.620,188.749 168.800,189.176 168.800 C 189.603 168.800,190.064 168.980,190.200 169.200 C 190.336 169.420,190.872 169.600,191.390 169.600 C 191.909 169.600,192.408 169.825,192.500 170.100 C 192.625 170.475,194.472 170.600,199.913 170.600 C 205.177 170.600,207.297 170.463,207.660 170.100 C 207.935 169.825,208.563 169.600,209.056 169.600 C 209.549 169.600,210.064 169.420,210.200 169.200 C 210.336 168.980,210.887 168.800,211.424 168.800 C 211.961 168.800,212.400 168.620,212.400 168.400 C 212.400 168.180,212.760 168.000,213.200 168.000 C 213.640 168.000,214.000 167.820,214.000 167.600 C 214.000 167.380,214.236 167.200,214.525 167.200 C 214.813 167.200,215.436 166.840,215.908 166.400 C 216.380 165.960,216.913 165.600,217.092 165.600 C 217.580 165.600,224.000 159.051,224.000 158.554 C 224.000 158.317,224.325 157.830,224.722 157.471 C 225.119 157.111,225.693 156.183,225.997 155.409 C 226.301 154.634,226.696 154.000,226.875 154.000 C 227.054 154.000,227.200 153.728,227.200 153.395 C 227.200 153.062,227.358 152.477,227.551 152.095 C 228.222 150.765,228.800 148.535,228.800 147.272 C 228.800 146.572,228.980 146.000,229.200 146.000 C 229.441 146.000,229.600 144.341,229.600 141.824 C 229.600 139.471,229.425 137.539,229.200 137.400 C 228.980 137.264,228.800 136.353,228.800 135.376 C 228.800 134.399,228.620 133.600,228.400 133.600 C 228.180 133.600,228.000 133.238,228.000 132.795 C 228.000 132.352,227.835 131.677,227.633 131.295 C 227.431 130.913,226.881 129.790,226.412 128.800 C 225.263 126.378,224.656 125.346,223.864 124.471 C 223.499 124.067,223.200 123.565,223.200 123.355 C 223.200 122.834,219.081 118.800,218.549 118.800 C 218.315 118.800,217.781 118.419,217.362 117.954 C 216.943 117.489,216.240 116.940,215.800 116.734 C 215.360 116.528,214.190 115.920,213.200 115.384 C 212.210 114.847,211.006 114.406,210.524 114.404 C 210.042 114.402,209.536 114.220,209.400 114.000 C 209.264 113.780,208.724 113.600,208.200 113.600 C 207.676 113.600,207.136 113.420,207.000 113.200 C 206.852 112.961,204.204 112.800,200.400 112.800 C 196.596 112.800,193.948 112.961,193.800 113.200 M103.200 139.505 C 103.200 139.673,102.795 139.988,102.300 140.205 C 101.805 140.422,101.222 141.005,101.005 141.500 C 100.788 141.995,100.473 142.400,100.305 142.400 C 100.137 142.400,100.000 143.462,100.000 144.760 C 100.000 147.302,101.862 150.000,103.616 150.000 C 104.021 150.000,104.464 150.180,104.600 150.400 C 104.758 150.656,110.700 150.800,121.112 150.800 C 139.094 150.800,140.403 150.621,141.627 148.000 C 141.883 147.450,142.252 146.687,142.447 146.305 C 143.534 144.169,142.170 141.301,139.305 139.700 C 138.298 139.137,103.200 138.947,103.200 139.505 M260.180 140.087 C 256.639 142.518,257.631 150.000,261.495 150.000 C 261.967 150.000,262.464 150.180,262.600 150.400 C 262.758 150.656,268.804 150.800,279.424 150.800 C 290.208 150.800,296.000 150.660,296.000 150.400 C 296.000 150.180,296.234 150.000,296.520 150.000 C 297.581 150.000,299.184 148.970,299.631 148.000 C 299.885 147.450,300.252 146.687,300.447 146.305 C 300.927 145.361,300.895 143.200,300.400 143.200 C 300.180 143.200,300.000 142.922,300.000 142.582 C 300.000 141.908,298.665 140.492,297.283 139.700 C 295.545 138.704,261.681 139.057,260.180 140.087 M237.200 225.000 L 237.200 232.400 216.800 232.400 C 203.467 232.400,196.400 232.539,196.400 232.800 C 196.400 233.020,196.117 233.200,195.771 233.200 C 194.963 233.200,194.000 234.163,194.000 234.971 C 194.000 235.317,193.796 235.600,193.546 235.600 C 192.428 235.600,193.818 240.277,195.600 242.509 C 196.972 244.227,196.212 244.192,236.800 244.400 L 275.800 244.600 275.902 285.892 L 276.004 327.184 275.102 327.401 C 274.606 327.521,239.370 327.570,196.800 327.509 L 119.400 327.400 119.400 286.000 L 119.400 244.600 146.978 244.497 C 162.146 244.441,174.656 244.261,174.778 244.097 C 174.900 243.934,175.360 243.605,175.800 243.367 C 176.240 243.129,176.778 242.544,176.995 242.067 C 177.212 241.590,177.527 241.200,177.695 241.200 C 177.863 241.200,178.000 240.862,178.000 240.449 C 178.000 240.036,178.270 239.474,178.600 239.200 C 179.267 238.646,179.428 236.400,178.800 236.400 C 178.580 236.400,178.400 236.124,178.400 235.787 C 178.400 235.449,177.776 234.549,177.013 233.787 L 175.627 232.400 169.613 232.400 L 163.600 232.400 163.600 225.000 L 163.600 217.600 200.400 217.600 L 237.200 217.600 237.200 225.000 M134.706 257.061 C 134.104 257.379,133.159 258.231,132.606 258.957 L 131.600 260.276 131.600 286.141 L 131.600 312.007 132.700 313.244 C 134.911 315.729,132.930 315.600,168.786 315.600 C 203.440 315.600,202.297 315.659,204.178 313.778 C 206.044 311.912,206.000 312.580,206.000 285.805 C 206.000 269.135,205.862 260.400,205.600 260.400 C 205.380 260.400,205.200 260.072,205.200 259.672 C 205.200 258.834,203.480 257.200,202.597 257.200 C 202.269 257.200,202.000 257.020,202.000 256.800 C 202.000 256.094,136.055 256.350,134.706 257.061 M219.800 257.159 C 216.548 259.058,215.684 263.667,218.125 266.087 C 222.565 270.487,231.075 268.131,231.171 262.474 C 231.212 260.056,229.396 257.200,227.818 257.200 C 227.478 257.200,227.200 257.020,227.200 256.800 C 227.200 256.081,221.142 256.375,219.800 257.159 M239.961 257.274 C 237.487 258.654,236.256 261.987,237.385 264.249 C 240.895 271.286,253.975 268.225,251.458 260.955 C 250.913 259.382,249.001 257.200,248.166 257.200 C 247.855 257.200,247.600 257.020,247.600 256.800 C 247.600 256.021,241.532 256.397,239.961 257.274 M261.225 257.013 C 259.940 257.719,258.000 259.815,258.000 260.498 C 258.000 260.796,257.780 261.260,257.510 261.530 C 257.123 261.917,257.123 262.185,257.510 262.805 C 257.780 263.236,258.000 263.936,258.000 264.361 C 258.000 266.066,260.580 267.669,264.301 268.276 C 266.971 268.711,271.600 266.421,271.600 264.664 C 271.600 264.299,271.780 264.000,272.000 264.000 C 272.705 264.000,272.428 261.327,271.552 259.686 C 269.993 256.766,264.342 255.303,261.225 257.013 M221.400 280.400 C 221.264 280.620,220.809 280.800,220.390 280.800 C 218.716 280.800,216.800 283.433,216.800 285.733 C 216.800 288.101,218.425 291.200,219.666 291.200 C 220.044 291.200,220.464 291.380,220.600 291.600 C 220.736 291.820,222.277 292.000,224.024 292.000 C 225.875 292.000,227.200 291.833,227.200 291.600 C 227.200 291.380,227.478 291.200,227.818 291.200 C 228.515 291.200,230.069 289.766,230.749 288.496 C 232.160 285.858,230.041 280.802,227.524 280.800 C 227.152 280.800,226.736 280.620,226.600 280.400 C 226.464 280.180,225.294 280.000,224.000 280.000 C 222.706 280.000,221.536 280.180,221.400 280.400 M241.800 280.400 C 241.664 280.620,241.239 280.800,240.855 280.800 C 239.655 280.800,236.800 284.378,236.800 285.883 C 236.800 287.668,238.562 290.235,240.394 291.118 C 242.335 292.053,247.600 292.406,247.600 291.600 C 247.600 291.380,247.915 291.198,248.300 291.196 C 249.156 291.192,250.829 289.163,251.479 287.342 C 252.283 285.089,250.088 280.812,248.124 280.804 C 247.642 280.802,247.136 280.620,247.000 280.400 C 246.864 280.180,245.694 280.000,244.400 280.000 C 243.106 280.000,241.936 280.180,241.800 280.400 M261.708 280.565 C 259.994 281.189,258.000 283.140,258.000 284.195 C 258.000 284.660,257.780 285.260,257.510 285.530 C 257.123 285.917,257.123 286.185,257.510 286.805 C 257.780 287.236,258.000 287.826,258.000 288.116 C 258.000 288.695,260.082 290.710,261.495 291.500 C 263.274 292.495,269.585 291.872,269.597 290.700 C 269.599 290.535,269.837 290.400,270.126 290.400 C 271.360 290.400,273.178 284.813,272.100 284.333 C 271.935 284.260,271.509 283.681,271.153 283.047 C 270.576 282.016,269.880 281.500,267.505 280.339 C 266.546 279.870,263.267 279.998,261.708 280.565 M218.483 305.715 C 214.248 310.031,217.366 315.600,224.018 315.600 C 230.532 315.600,233.651 309.946,229.453 305.747 L 227.705 304.000 223.936 304.000 L 220.167 304.000 218.483 305.715 M239.264 305.300 C 238.371 306.015,237.632 306.827,237.621 307.105 C 237.609 307.383,237.387 307.952,237.126 308.370 C 236.090 310.029,238.000 313.743,240.541 315.010 C 247.224 318.344,254.176 312.112,250.470 306.109 C 248.888 303.547,242.067 303.054,239.264 305.300 M260.606 304.524 C 259.253 305.335,258.001 306.958,258.000 307.900 C 258.000 308.395,257.820 308.800,257.600 308.800 C 257.097 308.800,257.083 309.794,257.574 310.705 C 257.779 311.087,258.181 311.981,258.467 312.690 C 258.767 313.434,259.455 314.174,260.093 314.439 C 260.702 314.691,261.200 315.055,261.200 315.249 C 261.200 315.799,267.890 315.669,268.883 315.100 C 270.248 314.318,271.600 312.895,271.600 312.242 C 271.600 311.915,271.780 311.536,272.000 311.400 C 272.220 311.264,272.400 310.443,272.400 309.576 C 272.400 308.709,272.220 308.000,272.000 308.000 C 271.780 308.000,271.600 307.722,271.600 307.382 C 271.600 306.685,270.166 305.131,268.896 304.451 C 267.789 303.859,261.624 303.913,260.606 304.524 M255.757 339.833 C 256.119 340.775,256.039 355.719,255.669 356.301 C 255.416 356.700,244.012 356.782,199.976 356.701 L 144.600 356.600 144.491 348.411 C 144.432 343.907,144.471 339.992,144.579 339.711 C 144.909 338.849,255.426 338.970,255.757 339.833 M237.507 378.500 L 237.400 388.200 200.000 388.200 L 162.600 388.200 162.492 379.009 C 162.433 373.953,162.472 369.588,162.580 369.309 C 162.736 368.902,170.288 368.800,200.195 368.800 L 237.614 368.800 237.507 378.500 " stroke="none" fill="#bbc3eb" fill-rule="evenodd"></path><path id="path3" d="M91.709 49.600 C 91.709 50.590,91.787 50.995,91.882 50.500 C 91.978 50.005,91.978 49.195,91.882 48.700 C 91.787 48.205,91.709 48.610,91.709 49.600 M167.226 82.907 C 166.087 84.311,166.042 84.429,166.963 83.600 C 167.920 82.738,169.056 81.186,168.714 81.207 C 168.651 81.211,167.982 81.976,167.226 82.907 M162.499 145.300 L 162.400 205.600 200.100 205.502 L 237.800 205.404 200.301 205.300 L 162.803 205.196 162.700 145.098 L 162.597 85.000 162.499 145.300 M227.190 88.982 C 228.479 91.278,228.228 93.475,226.421 95.719 C 224.924 97.578,224.778 97.588,200.000 97.701 L 176.600 97.807 200.039 97.903 C 226.881 98.014,225.619 98.186,227.900 94.105 C 228.836 92.431,228.155 88.638,226.765 87.778 C 226.553 87.648,226.745 88.189,227.190 88.982 M172.488 91.800 C 172.447 93.376,172.627 94.467,173.013 94.976 C 173.336 95.404,173.600 95.575,173.600 95.356 C 173.600 95.138,173.430 94.789,173.222 94.580 C 173.014 94.371,172.778 93.120,172.698 91.800 L 172.551 89.400 172.488 91.800 M112.129 95.500 C 119.350 95.561,131.050 95.561,138.129 95.500 C 145.208 95.439,139.300 95.389,125.000 95.389 C 110.700 95.389,104.908 95.439,112.129 95.500 M262.129 95.500 C 269.350 95.561,281.050 95.561,288.129 95.500 C 295.208 95.439,289.300 95.389,275.000 95.389 C 260.700 95.389,254.908 95.439,262.129 95.500 M97.849 105.415 C 97.712 105.773,97.627 106.996,97.661 108.133 L 97.722 110.200 97.987 107.600 C 98.272 104.818,98.244 104.387,97.849 105.415 M96.965 110.948 C 96.849 111.249,96.813 112.464,96.884 113.648 L 97.013 115.800 97.207 113.099 C 97.401 110.381,97.352 109.939,96.965 110.948 M193.600 112.800 C 193.600 113.020,193.088 113.200,192.461 113.200 C 191.473 113.200,188.800 114.216,188.800 114.592 C 188.800 114.859,190.419 114.293,190.630 113.952 C 190.749 113.758,191.456 113.600,192.200 113.600 C 192.944 113.600,193.664 113.420,193.800 113.200 C 193.948 112.961,196.596 112.800,200.400 112.800 C 204.204 112.800,206.852 112.961,207.000 113.200 C 207.136 113.420,207.676 113.600,208.200 113.600 C 208.724 113.600,209.251 113.759,209.371 113.954 C 209.492 114.149,210.123 114.386,210.774 114.482 C 211.425 114.577,211.867 114.508,211.755 114.328 C 211.644 114.147,211.124 114.000,210.600 114.000 C 210.076 114.000,209.536 113.820,209.400 113.600 C 209.264 113.380,208.724 113.200,208.200 113.200 C 207.676 113.200,207.136 113.020,207.000 112.800 C 206.851 112.560,204.129 112.400,200.176 112.400 C 196.059 112.400,193.600 112.550,193.600 112.800 M214.749 116.136 C 215.051 116.501,215.515 116.800,215.779 116.800 C 216.044 116.800,216.683 117.250,217.200 117.800 C 217.717 118.350,218.294 118.800,218.484 118.800 C 218.920 118.800,216.525 116.783,215.200 116.036 C 214.281 115.517,214.245 115.525,214.749 116.136 M96.164 116.551 C 96.047 116.854,96.011 117.979,96.084 119.051 L 96.215 121.000 96.408 118.499 C 96.602 115.973,96.549 115.547,96.164 116.551 M178.955 121.310 C 176.362 124.031,172.647 129.436,173.904 128.659 C 174.095 128.541,174.690 127.580,175.226 126.522 C 175.762 125.465,177.620 123.115,179.355 121.300 C 181.090 119.485,182.420 118.000,182.310 118.000 C 182.200 118.000,180.690 119.490,178.955 121.310 M304.317 120.937 C 304.381 122.292,304.602 123.760,304.809 124.200 C 305.016 124.640,305.245 125.990,305.318 127.200 L 305.452 129.400 305.526 126.924 C 305.567 125.562,305.420 124.336,305.200 124.200 C 304.980 124.064,304.800 122.804,304.800 121.400 C 304.800 119.996,304.665 118.763,304.500 118.661 C 304.335 118.558,304.252 119.582,304.317 120.937 M220.783 120.500 C 221.764 121.545,222.619 122.400,222.683 122.400 C 222.984 122.400,222.666 122.041,220.900 120.383 L 219.000 118.600 220.783 120.500 M95.365 122.148 C 95.249 122.449,95.213 123.664,95.284 124.848 L 95.413 127.000 95.607 124.299 C 95.801 121.581,95.752 121.139,95.365 122.148 M223.225 123.238 C 223.211 123.589,223.560 124.202,224.000 124.600 C 224.440 124.998,224.800 125.544,224.800 125.813 C 224.800 126.082,225.065 126.522,225.389 126.791 C 225.891 127.208,225.888 127.098,225.364 126.048 C 225.026 125.370,224.568 124.704,224.347 124.567 C 224.125 124.430,223.788 123.932,223.597 123.459 C 223.361 122.873,223.243 122.803,223.225 123.238 M94.531 129.800 C 94.533 131.340,94.605 131.921,94.692 131.091 C 94.779 130.261,94.777 129.001,94.689 128.291 C 94.600 127.581,94.529 128.260,94.531 129.800 M173.057 129.884 C 172.923 130.278,172.636 131.005,172.419 131.500 C 171.779 132.964,172.303 132.525,173.034 130.986 C 173.403 130.208,173.614 129.481,173.503 129.370 C 173.392 129.259,173.192 129.490,173.057 129.884 M306.134 132.400 C 306.134 134.050,306.205 134.725,306.291 133.900 C 306.378 133.075,306.378 131.725,306.291 130.900 C 306.205 130.075,306.134 130.750,306.134 132.400 M227.202 130.476 C 227.201 130.848,227.380 131.264,227.600 131.400 C 227.820 131.536,228.025 132.132,228.054 132.724 C 228.096 133.542,228.148 133.603,228.272 132.979 C 228.362 132.528,228.158 131.628,227.820 130.979 C 227.439 130.248,227.204 130.057,227.202 130.476 M93.679 135.820 C 93.636 137.591,93.430 139.211,93.222 139.420 C 92.547 140.100,92.359 149.961,92.273 189.400 L 92.188 228.200 92.473 189.400 C 92.773 148.583,92.955 140.712,93.627 139.390 C 93.853 138.945,93.976 137.235,93.899 135.590 L 93.759 132.600 93.679 135.820 M171.693 134.000 C 171.693 134.770,171.775 135.085,171.876 134.700 C 171.976 134.315,171.976 133.685,171.876 133.300 C 171.775 132.915,171.693 133.230,171.693 134.000 M228.864 135.476 C 228.829 136.398,228.980 137.264,229.200 137.400 C 229.420 137.536,229.637 139.392,229.682 141.524 L 229.765 145.400 229.899 141.805 C 229.973 139.828,229.852 137.848,229.629 137.405 C 229.407 136.962,229.158 135.970,229.076 135.200 C 228.936 133.873,228.925 133.887,228.864 135.476 M170.888 141.476 C 170.834 145.194,170.955 147.649,171.200 147.800 C 171.420 147.936,171.625 148.622,171.654 149.324 C 171.699 150.362,171.743 150.421,171.890 149.640 C 171.990 149.112,171.875 148.302,171.636 147.840 C 171.397 147.378,171.150 144.390,171.088 141.200 L 170.976 135.400 170.888 141.476 M306.797 139.518 L 306.994 143.400 307.114 139.836 C 307.179 137.877,307.091 136.130,306.916 135.955 C 306.742 135.780,306.689 137.383,306.797 139.518 M120.800 139.099 C 139.141 139.212,139.764 139.273,141.221 141.081 C 142.805 143.048,143.198 144.821,142.400 146.405 C 142.180 146.842,141.808 147.578,141.572 148.039 C 141.337 148.500,141.217 148.950,141.305 149.038 C 141.393 149.127,141.697 148.704,141.979 148.099 C 142.262 147.495,142.652 146.687,142.847 146.305 C 143.957 144.124,142.390 141.024,139.305 139.300 C 138.620 138.917,134.314 138.822,120.905 138.896 L 103.400 138.991 120.800 139.099 M260.749 139.500 C 260.263 140.119,260.273 140.143,260.836 139.704 C 261.315 139.331,265.813 139.182,279.036 139.100 L 296.600 138.991 278.949 138.896 C 262.548 138.807,261.259 138.850,260.749 139.500 M101.362 140.500 C 100.606 141.392,100.607 141.394,101.400 140.752 C 101.840 140.396,102.470 140.005,102.800 139.884 C 103.309 139.697,103.304 139.658,102.762 139.632 C 102.411 139.614,101.781 140.005,101.362 140.500 M258.077 141.971 C 257.781 142.639,257.620 144.065,257.704 145.274 L 257.852 147.400 257.926 144.980 C 257.967 143.649,258.200 142.360,258.445 142.115 C 258.690 141.870,258.824 141.473,258.744 141.232 C 258.664 140.991,258.364 141.323,258.077 141.971 M307.510 157.528 C 307.576 165.828,307.777 171.537,308.010 171.770 C 308.225 171.985,308.400 172.422,308.400 172.742 C 308.400 173.652,310.365 176.001,311.120 175.994 C 311.625 175.990,311.559 175.861,310.864 175.494 C 310.031 175.055,309.531 174.344,308.339 171.905 C 308.153 171.523,308.000 165.099,308.000 157.629 C 308.000 150.159,307.865 143.964,307.700 143.862 C 307.535 143.759,307.450 149.909,307.510 157.528 M228.724 147.600 C 228.585 148.590,228.358 149.940,228.221 150.600 C 228.069 151.326,228.223 151.119,228.609 150.075 C 228.960 149.126,229.186 147.776,229.112 147.075 C 228.990 145.924,228.952 145.975,228.724 147.600 M172.446 151.459 C 172.390 152.497,174.400 156.439,176.023 158.477 C 176.671 159.289,177.200 160.118,177.200 160.319 C 177.200 160.720,181.396 164.800,181.808 164.800 C 181.949 164.800,181.060 163.882,179.832 162.760 C 178.605 161.638,177.600 160.559,177.600 160.363 C 177.600 160.167,176.988 159.205,176.240 158.225 C 174.864 156.422,173.005 152.866,172.674 151.400 C 172.504 150.651,172.490 150.655,172.446 151.459 M225.994 155.414 C 225.692 156.186,225.119 157.111,224.722 157.471 C 224.325 157.830,224.000 158.317,224.000 158.554 C 224.000 158.790,222.515 160.517,220.700 162.392 L 217.400 165.800 220.900 162.409 C 222.825 160.544,224.400 158.811,224.400 158.558 C 224.400 158.305,224.673 157.871,225.007 157.594 C 225.705 157.015,226.994 154.461,226.725 154.191 C 226.626 154.092,226.297 154.643,225.994 155.414 M195.862 170.900 C 195.964 171.065,197.916 171.200,200.200 171.200 C 202.484 171.200,204.436 171.065,204.538 170.900 C 204.640 170.735,202.688 170.600,200.200 170.600 C 197.712 170.600,195.760 170.735,195.862 170.900 M315.105 191.883 C 315.602 191.979,316.322 191.975,316.705 191.875 C 317.087 191.775,316.680 191.696,315.800 191.701 C 314.920 191.705,314.607 191.787,315.105 191.883 M310.949 192.794 C 309.962 193.193,308.400 195.242,308.400 196.138 C 308.400 196.476,308.220 196.864,308.000 197.000 C 307.738 197.162,307.600 210.382,307.600 235.356 L 307.600 273.464 306.636 275.368 C 305.111 278.380,302.754 280.400,300.762 280.400 C 300.369 280.400,299.946 280.563,299.823 280.763 C 299.700 280.962,300.004 281.034,300.499 280.923 C 303.369 280.278,305.441 278.519,307.032 275.377 L 308.000 273.464 308.000 235.527 C 308.000 214.661,308.153 197.277,308.339 196.895 C 309.519 194.481,310.021 193.751,310.771 193.360 C 312.336 192.542,312.447 192.189,310.949 192.794 M90.400 229.400 C 89.883 229.950,89.233 230.400,88.954 230.400 C 88.675 230.400,88.346 230.563,88.223 230.763 C 88.100 230.962,88.341 231.036,88.759 230.927 C 89.446 230.747,92.034 228.400,91.545 228.400 C 91.432 228.400,90.917 228.850,90.400 229.400 M292.046 236.076 C 292.021 236.668,292.180 237.264,292.400 237.400 C 292.657 237.559,292.835 245.476,292.896 259.524 L 292.993 281.400 293.105 259.800 C 293.174 246.439,293.068 237.895,292.829 237.400 C 292.616 236.960,292.363 236.240,292.267 235.800 C 292.138 235.205,292.081 235.276,292.046 236.076 M107.600 258.480 C 107.490 270.954,107.537 281.024,107.703 280.857 C 107.870 280.690,107.960 270.484,107.903 258.177 L 107.800 235.800 107.600 258.480 M182.480 237.898 C 184.394 237.971,187.634 237.971,189.680 237.898 C 191.726 237.826,190.160 237.766,186.200 237.765 C 182.240 237.765,180.566 237.824,182.480 237.898 M91.200 249.487 C 91.200 249.743,91.380 250.064,91.600 250.200 C 91.851 250.355,92.000 254.596,92.000 261.600 C 92.000 267.734,92.135 272.836,92.300 272.939 C 92.923 273.324,92.422 250.767,91.788 249.861 C 91.464 249.400,91.200 249.231,91.200 249.487 M92.814 273.839 C 92.747 276.002,97.870 280.868,100.095 280.754 C 100.902 280.712,100.913 280.688,100.200 280.526 C 97.567 279.932,94.822 277.615,93.539 274.904 C 93.148 274.077,92.821 273.597,92.814 273.839 M144.579 339.711 C 144.471 339.992,144.432 343.907,144.491 348.411 L 144.600 356.600 199.976 356.701 C 244.012 356.782,255.416 356.700,255.669 356.301 C 256.039 355.719,256.119 340.775,255.757 339.833 C 255.426 338.970,144.909 338.849,144.579 339.711 M162.580 369.309 C 162.472 369.588,162.433 373.953,162.492 379.009 L 162.600 388.200 200.000 388.200 L 237.400 388.200 237.507 378.500 L 237.614 368.800 200.195 368.800 C 170.288 368.800,162.736 368.902,162.580 369.309 " stroke="none" fill="#cccbcc" fill-rule="evenodd"></path><path id="path4" d="M117.523 12.300 C 117.192 12.685,116.795 13.355,116.640 13.788 C 116.289 14.768,116.763 14.327,117.371 13.107 L 117.824 12.200 196.534 12.099 L 275.245 11.998 276.551 14.899 C 277.269 16.495,278.267 18.880,278.767 20.200 C 279.268 21.520,279.829 22.960,280.013 23.400 C 280.197 23.840,280.577 24.920,280.857 25.800 C 281.137 26.680,281.477 27.580,281.611 27.800 C 281.746 28.020,282.094 29.010,282.386 30.000 C 282.677 30.990,283.181 32.610,283.505 33.600 C 283.830 34.590,284.264 36.030,284.470 36.800 C 284.676 37.570,285.027 38.830,285.249 39.600 C 286.152 42.728,286.827 45.693,288.437 53.600 C 289.290 57.788,290.175 64.026,290.793 70.200 C 291.443 76.685,291.625 76.233,291.358 68.800 C 291.228 65.170,290.959 62.140,290.761 62.067 C 290.562 61.993,290.400 60.958,290.400 59.767 C 290.400 58.575,290.220 57.600,290.000 57.600 C 289.778 57.600,289.600 56.533,289.600 55.200 C 289.600 53.867,289.422 52.800,289.200 52.800 C 288.980 52.800,288.800 51.900,288.800 50.800 C 288.800 49.700,288.620 48.800,288.400 48.800 C 288.180 48.800,288.000 47.900,288.000 46.800 C 288.000 45.700,287.820 44.800,287.600 44.800 C 287.380 44.800,287.200 44.170,287.200 43.400 C 287.200 42.630,287.020 42.000,286.800 42.000 C 286.580 42.000,286.400 41.280,286.400 40.400 C 286.400 39.520,286.220 38.800,286.000 38.800 C 285.780 38.800,285.600 38.260,285.600 37.600 C 285.600 36.940,285.420 36.400,285.200 36.400 C 284.980 36.400,284.800 35.680,284.800 34.800 C 284.800 33.920,284.620 33.200,284.400 33.200 C 284.180 33.200,284.000 32.660,284.000 32.000 C 284.000 31.340,283.820 30.800,283.600 30.800 C 283.380 30.800,283.200 30.260,283.200 29.600 C 283.200 28.940,283.020 28.400,282.800 28.400 C 282.580 28.400,282.400 27.950,282.400 27.400 C 282.400 26.850,282.220 26.400,282.000 26.400 C 281.780 26.400,281.600 25.860,281.600 25.200 C 281.600 24.540,281.420 24.000,281.200 24.000 C 280.980 24.000,280.800 23.640,280.800 23.200 C 280.800 22.760,280.620 22.400,280.400 22.400 C 280.180 22.400,280.000 21.860,280.000 21.200 C 280.000 20.540,279.820 20.000,279.600 20.000 C 279.380 20.000,279.200 19.460,279.200 18.800 C 279.200 18.140,279.020 17.600,278.800 17.600 C 278.580 17.600,278.400 17.240,278.400 16.800 C 278.400 16.360,278.220 16.000,278.000 16.000 C 277.780 16.000,277.600 15.640,277.600 15.200 C 277.600 14.760,277.420 14.400,277.200 14.400 C 276.980 14.400,276.800 14.132,276.800 13.805 C 276.800 13.477,276.490 12.847,276.111 12.405 C 275.100 11.224,118.535 11.121,117.523 12.300 M129.267 23.792 C 128.754 24.075,127.719 24.903,126.967 25.632 L 125.600 26.957 125.600 51.350 C 125.600 75.162,125.681 76.983,126.849 79.295 C 127.042 79.677,127.200 80.431,127.200 80.971 C 127.200 81.511,127.380 82.064,127.600 82.200 C 129.631 83.455,128.065 83.611,114.500 83.505 L 101.000 83.400 101.077 79.200 C 101.119 76.890,101.347 73.200,101.583 71.000 C 101.819 68.800,102.114 65.830,102.239 64.400 C 102.363 62.970,102.630 61.629,102.832 61.420 C 103.035 61.211,103.200 60.097,103.200 58.944 C 103.200 57.791,103.380 56.736,103.600 56.600 C 103.820 56.464,104.000 55.474,104.000 54.400 C 104.000 53.326,104.161 52.348,104.358 52.226 C 104.695 52.018,104.818 51.455,105.433 47.297 C 105.571 46.361,105.845 45.495,106.042 45.374 C 106.239 45.252,106.400 44.544,106.400 43.800 C 106.400 43.056,106.580 42.336,106.800 42.200 C 107.020 42.064,107.200 41.434,107.200 40.800 C 107.200 40.166,107.380 39.536,107.600 39.400 C 107.820 39.264,108.000 38.634,108.000 38.000 C 108.000 37.366,108.180 36.736,108.400 36.600 C 108.620 36.464,108.800 36.001,108.800 35.571 C 108.800 35.141,108.962 34.477,109.161 34.095 C 109.360 33.713,109.752 32.590,110.033 31.600 C 110.314 30.610,110.854 29.080,111.232 28.200 C 112.133 26.104,112.413 24.800,111.963 24.800 C 111.763 24.800,111.600 25.340,111.600 26.000 C 111.600 26.660,111.420 27.200,111.200 27.200 C 110.980 27.200,110.800 27.549,110.800 27.976 C 110.800 28.403,110.620 28.864,110.400 29.000 C 110.180 29.136,110.000 29.676,110.000 30.200 C 110.000 30.724,109.820 31.264,109.600 31.400 C 109.380 31.536,109.200 32.177,109.200 32.824 C 109.200 33.471,109.020 34.000,108.800 34.000 C 108.580 34.000,108.400 34.529,108.400 35.176 C 108.400 35.823,108.220 36.464,108.000 36.600 C 107.780 36.736,107.600 37.366,107.600 38.000 C 107.600 38.634,107.420 39.264,107.200 39.400 C 106.980 39.536,106.800 40.166,106.800 40.800 C 106.800 41.434,106.620 42.064,106.400 42.200 C 106.180 42.336,106.000 43.056,106.000 43.800 C 106.000 44.544,105.820 45.264,105.600 45.400 C 105.380 45.536,105.200 46.256,105.200 47.000 C 105.200 47.744,105.020 48.464,104.800 48.600 C 104.580 48.736,104.400 49.521,104.400 50.344 C 104.400 51.167,104.237 52.011,104.039 52.220 C 103.695 52.581,103.508 53.644,102.987 58.200 C 102.861 59.300,102.595 60.560,102.396 61.000 C 102.196 61.440,101.933 62.970,101.811 64.400 C 101.690 65.830,101.410 68.710,101.190 70.800 C 100.380 78.484,100.283 83.005,100.914 83.529 C 101.348 83.889,104.885 83.984,114.848 83.905 L 128.200 83.800 128.328 82.900 C 128.398 82.405,128.263 82.000,128.028 82.000 C 127.793 82.000,127.600 81.471,127.600 80.824 C 127.600 80.177,127.420 79.536,127.200 79.400 C 126.980 79.264,126.800 78.634,126.800 78.000 C 126.800 77.366,126.620 76.736,126.400 76.600 C 126.140 76.440,126.000 67.725,126.000 51.763 L 126.000 27.173 127.325 25.887 C 128.054 25.179,129.042 24.375,129.520 24.100 C 130.206 23.705,145.073 23.600,200.157 23.600 L 269.924 23.600 271.514 24.448 C 274.918 26.265,274.800 25.278,274.800 52.038 C 274.800 67.479,274.662 75.600,274.400 75.600 C 274.180 75.600,274.000 76.052,274.000 76.605 C 274.000 77.158,273.838 77.923,273.639 78.305 C 272.981 79.571,272.314 82.255,272.463 83.034 C 272.615 83.825,287.560 84.438,291.100 83.799 L 292.400 83.564 292.400 80.982 C 292.400 77.670,291.676 77.602,291.519 80.900 L 291.400 83.400 282.100 83.507 L 272.800 83.615 272.800 82.431 C 272.800 81.780,272.980 81.136,273.200 81.000 C 273.420 80.864,273.600 80.234,273.600 79.600 C 273.600 78.966,273.780 78.336,274.000 78.200 C 274.220 78.064,274.400 77.524,274.400 77.000 C 274.400 76.476,274.580 75.936,274.800 75.800 C 275.059 75.640,275.200 67.279,275.200 52.025 C 275.200 24.749,275.357 25.893,271.320 23.848 C 269.588 22.971,130.856 22.917,129.267 23.792 M178.480 239.280 C 178.216 239.544,178.000 240.084,178.000 240.480 C 178.000 240.876,177.820 241.200,177.600 241.200 C 177.380 241.200,177.200 241.411,177.200 241.669 C 177.200 241.926,176.975 242.431,176.700 242.791 C 176.425 243.150,176.695 242.901,177.300 242.237 C 177.905 241.573,178.400 240.744,178.400 240.395 C 178.400 240.046,178.616 239.544,178.880 239.280 C 179.144 239.016,179.270 238.800,179.160 238.800 C 179.050 238.800,178.744 239.016,178.480 239.280 M193.600 239.986 C 193.600 240.821,195.554 243.184,196.946 244.033 C 198.158 244.771,199.502 244.797,236.700 244.799 L 275.200 244.800 275.200 286.000 L 275.200 327.200 197.400 327.200 L 119.600 327.200 119.600 286.000 L 119.600 244.800 147.151 244.800 C 171.153 244.800,174.766 244.723,175.200 244.200 C 175.544 243.785,175.559 243.600,175.249 243.600 C 175.002 243.600,174.800 243.779,174.800 243.997 C 174.800 244.255,165.104 244.430,147.100 244.497 L 119.400 244.600 119.400 286.000 L 119.400 327.400 196.800 327.509 C 239.370 327.570,274.606 327.521,275.102 327.401 L 276.004 327.184 275.902 285.892 L 275.800 244.600 236.800 244.400 C 207.970 244.252,197.591 244.077,197.000 243.730 C 196.126 243.217,194.808 241.766,194.787 241.295 C 194.762 240.715,193.600 239.433,193.600 239.986 M134.800 256.680 C 134.470 256.799,133.525 257.542,132.700 258.330 L 131.200 259.762 131.200 285.966 L 131.200 312.170 132.883 313.885 C 133.809 314.828,134.844 315.599,135.183 315.599 C 135.531 315.598,135.277 315.273,134.600 314.852 C 133.940 314.443,132.995 313.632,132.500 313.051 L 131.600 311.994 131.600 286.088 L 131.600 260.182 132.829 258.691 C 133.505 257.871,134.305 257.200,134.606 257.200 C 134.907 257.200,135.264 257.020,135.400 256.800 C 135.669 256.364,135.673 256.365,134.800 256.680 M202.000 256.813 C 202.000 257.026,202.269 257.200,202.597 257.200 C 203.480 257.200,205.200 258.834,205.200 259.672 C 205.200 260.072,205.380 260.400,205.600 260.400 C 205.862 260.400,206.000 269.135,206.000 285.805 C 206.000 312.325,206.017 312.045,204.300 313.643 C 203.915 314.001,203.600 314.436,203.600 314.609 C 203.600 315.183,205.196 313.492,205.803 312.274 C 206.693 310.491,206.699 261.523,205.810 259.741 C 204.888 257.892,202.000 255.672,202.000 256.813 M219.778 256.784 C 215.393 258.559,215.146 265.609,219.400 267.547 C 220.060 267.847,220.913 268.252,221.295 268.447 C 222.244 268.930,226.295 268.894,226.600 268.400 C 226.736 268.180,227.135 268.000,227.486 268.000 C 228.413 268.000,230.661 266.175,230.911 265.219 C 231.214 264.061,230.856 264.201,230.392 265.422 C 229.119 268.770,221.244 269.197,218.119 266.087 C 215.798 263.776,216.592 258.824,219.519 257.365 C 221.104 256.575,221.283 256.174,219.778 256.784 M227.200 256.813 C 227.200 257.026,227.545 257.200,227.967 257.200 C 228.388 257.200,228.825 257.385,228.937 257.610 C 229.049 257.836,229.099 257.808,229.049 257.548 C 228.936 256.960,227.200 256.269,227.200 256.813 M240.141 256.797 C 239.668 256.988,239.170 257.324,239.034 257.545 C 238.898 257.765,239.330 257.675,239.993 257.343 C 240.657 257.012,241.200 256.665,241.200 256.571 C 241.200 256.366,241.220 256.362,240.141 256.797 M247.600 256.790 C 247.600 257.015,247.855 257.200,248.166 257.200 C 250.207 257.200,252.206 261.506,251.352 264.063 C 249.534 269.503,239.619 269.777,237.549 264.445 C 237.345 263.919,237.066 263.601,236.929 263.737 C 236.513 264.154,238.754 267.045,239.912 267.586 C 240.510 267.865,241.313 268.252,241.695 268.447 C 242.644 268.930,246.695 268.894,247.000 268.400 C 247.136 268.180,247.651 268.000,248.145 268.000 C 250.346 268.000,252.890 263.388,251.967 261.071 C 250.966 258.558,247.600 255.258,247.600 256.790 M259.948 257.377 C 257.845 258.806,256.611 261.610,257.238 263.536 C 257.759 265.138,258.800 266.855,258.800 266.113 C 258.800 265.857,258.620 265.536,258.400 265.400 C 258.180 265.264,258.000 264.749,258.000 264.256 C 258.000 263.763,257.780 263.140,257.510 262.870 C 257.123 262.483,257.123 262.215,257.510 261.595 C 257.780 261.164,258.000 260.624,258.000 260.395 C 258.000 259.774,260.450 257.200,261.041 257.200 C 261.322 257.200,261.664 257.020,261.800 256.800 C 262.222 256.116,261.448 256.358,259.948 257.377 M268.000 256.581 C 268.000 256.681,268.600 257.047,269.333 257.395 C 271.418 258.384,273.685 264.000,272.000 264.000 C 271.780 264.000,271.600 264.299,271.600 264.664 C 271.600 266.423,266.966 268.713,264.301 268.272 C 261.730 267.847,260.587 267.485,259.800 266.848 C 259.007 266.206,259.006 266.208,259.762 267.100 C 260.181 267.595,260.935 268.000,261.438 268.000 C 261.941 268.000,262.464 268.180,262.600 268.400 C 262.736 268.620,263.692 268.797,264.724 268.794 C 270.717 268.775,274.243 264.337,271.983 259.659 C 271.141 257.916,268.000 255.489,268.000 256.581 M221.000 280.000 C 220.864 280.220,220.448 280.400,220.076 280.400 C 216.659 280.403,215.124 287.281,217.871 290.285 C 218.804 291.304,218.756 290.771,217.788 289.344 C 215.705 286.275,217.372 280.800,220.390 280.800 C 220.809 280.800,221.264 280.620,221.400 280.400 C 221.536 280.180,222.706 280.000,224.000 280.000 C 225.294 280.000,226.464 280.180,226.600 280.400 C 226.736 280.620,227.152 280.800,227.524 280.800 C 228.308 280.801,230.400 282.490,230.400 283.123 C 230.400 283.359,230.580 283.664,230.800 283.800 C 231.020 283.936,231.200 283.848,231.200 283.604 C 231.200 282.818,228.546 280.400,227.683 280.400 C 227.223 280.400,226.736 280.220,226.600 280.000 C 226.464 279.780,225.204 279.600,223.800 279.600 C 222.396 279.600,221.136 279.780,221.000 280.000 M241.600 280.000 C 241.600 280.220,241.324 280.400,240.986 280.400 C 239.579 280.400,236.221 283.955,236.945 284.678 C 237.075 284.808,237.301 284.574,237.448 284.157 C 237.863 282.983,240.078 280.800,240.855 280.800 C 241.239 280.800,241.664 280.620,241.800 280.400 C 241.936 280.180,243.106 280.000,244.400 280.000 C 245.694 280.000,246.864 280.180,247.000 280.400 C 247.136 280.620,247.642 280.802,248.124 280.804 C 251.333 280.817,252.662 286.837,250.103 289.771 C 249.609 290.337,249.352 290.800,249.531 290.800 C 252.292 290.800,252.858 284.161,250.305 281.711 C 248.484 279.963,241.600 278.610,241.600 280.000 M262.200 280.000 C 262.064 280.220,261.640 280.400,261.258 280.400 C 259.030 280.400,256.381 285.340,257.381 287.631 C 260.533 294.855,272.800 293.545,272.800 285.984 C 272.800 284.068,270.083 280.400,268.664 280.400 C 268.325 280.400,267.936 280.220,267.800 280.000 C 267.664 279.780,266.404 279.600,265.000 279.600 C 263.596 279.600,262.336 279.780,262.200 280.000 M267.505 280.339 C 269.880 281.500,270.576 282.016,271.153 283.047 C 271.509 283.681,271.935 284.260,272.100 284.333 C 273.178 284.813,271.360 290.400,270.126 290.400 C 269.837 290.400,269.599 290.535,269.597 290.700 C 269.590 291.364,267.298 292.000,264.915 292.000 C 263.526 292.000,261.987 291.775,261.495 291.500 C 260.082 290.710,258.000 288.695,258.000 288.116 C 258.000 287.826,257.780 287.236,257.510 286.805 C 257.123 286.185,257.123 285.917,257.510 285.530 C 257.780 285.260,258.000 284.660,258.000 284.195 C 258.000 281.584,264.586 278.913,267.505 280.339 M230.800 288.358 C 230.800 288.959,228.612 291.097,227.782 291.309 C 227.064 291.491,227.070 291.511,227.859 291.554 C 228.379 291.582,229.206 291.043,229.959 290.186 C 231.088 288.899,231.517 288.000,231.000 288.000 C 230.890 288.000,230.800 288.161,230.800 288.358 M238.400 290.556 C 238.400 291.980,246.057 292.948,248.254 291.802 C 249.304 291.255,249.325 291.205,248.500 291.202 C 248.005 291.201,247.600 291.380,247.600 291.600 C 247.600 292.378,242.142 292.066,240.600 291.200 C 239.265 290.450,238.400 290.197,238.400 290.556 M219.200 291.461 C 219.530 291.570,220.164 291.834,220.610 292.049 C 221.055 292.263,222.765 292.376,224.410 292.299 L 227.400 292.159 224.124 292.079 C 222.322 292.036,220.736 291.820,220.600 291.600 C 220.464 291.380,219.958 291.214,219.476 291.232 C 218.923 291.252,218.821 291.336,219.200 291.461 M218.000 305.600 C 215.554 308.046,215.601 311.449,218.115 313.917 C 219.058 314.843,220.093 315.599,220.415 315.599 C 220.737 315.598,220.444 315.258,219.765 314.844 C 216.184 312.660,215.619 308.634,218.483 305.715 C 219.409 304.772,220.039 304.000,219.883 304.000 C 219.727 304.000,218.880 304.720,218.000 305.600 M238.975 305.300 L 237.800 306.600 239.198 305.400 C 239.967 304.740,240.672 304.155,240.765 304.100 C 240.857 304.045,240.757 304.000,240.542 304.000 C 240.326 304.000,239.621 304.585,238.975 305.300 M248.200 304.400 C 248.336 304.620,248.694 304.800,248.996 304.800 C 249.674 304.800,250.866 306.520,251.519 308.441 C 252.150 310.296,251.348 312.384,249.260 314.319 L 247.800 315.672 249.128 314.936 C 250.311 314.281,250.857 313.567,252.061 311.105 C 252.520 310.166,252.489 308.902,252.000 308.600 C 251.780 308.464,251.600 307.932,251.600 307.418 C 251.600 306.848,251.047 305.998,250.186 305.241 C 248.829 304.050,247.684 303.565,248.200 304.400 M268.986 304.480 C 270.249 305.213,271.600 306.712,271.600 307.382 C 271.600 307.722,271.780 308.000,272.000 308.000 C 272.220 308.000,272.400 308.709,272.400 309.576 C 272.400 310.443,272.220 311.264,272.000 311.400 C 271.780 311.536,271.600 311.957,271.600 312.335 C 271.600 312.714,271.240 313.283,270.800 313.600 C 270.360 313.917,270.000 314.345,270.000 314.550 C 270.000 315.171,271.564 313.554,272.203 312.274 C 272.931 310.815,272.974 308.700,272.300 307.495 C 271.452 305.978,269.476 303.999,268.822 304.012 C 268.351 304.021,268.391 304.135,268.986 304.480 M229.402 305.602 C 229.802 306.044,230.215 306.318,230.321 306.212 C 230.590 305.943,229.592 304.800,229.089 304.800 C 228.862 304.800,229.003 305.161,229.402 305.602 M256.809 309.505 C 256.804 309.783,256.964 310.323,257.164 310.705 C 257.364 311.087,257.810 312.030,258.155 312.800 C 258.500 313.570,258.786 313.973,258.791 313.695 C 258.796 313.417,258.636 312.877,258.436 312.495 C 258.236 312.113,257.790 311.170,257.445 310.400 C 257.100 309.630,256.814 309.227,256.809 309.505 M229.923 313.132 C 229.635 313.535,228.899 314.189,228.288 314.586 C 227.676 314.983,227.260 315.394,227.364 315.498 C 227.656 315.790,229.950 314.041,230.415 313.172 C 230.939 312.193,230.612 312.166,229.923 313.132 " stroke="none" fill="#a2a4c2" fill-rule="evenodd"></path></g></svg>